<svg xmlns="http://www.w3.org/2000/svg" width="47" height="47" viewBox="0 0 47 47" fill="none">
  <circle cx="23.5" cy="23.5" r="23.5" fill="url(#paint0_linear_752_31094)" fill-opacity="0.31"/>
  <path fill-rule="evenodd" clip-rule="evenodd" d="M11 14.5C11 14.2239 11.2239 14 11.5 14H13.7415C14.4142 14 15.0046 14.4478 15.186 15.0956L15.9992 18H31.2374C32.2047 18 32.9191 18.902 32.6975 19.8436L31.1681 26.3436C31.0087 27.0211 30.4041 27.5 29.708 27.5H18.7585C18.0858 27.5 17.4954 27.0522 17.314 26.4044L14.223 15.3652C14.1626 15.1493 13.9658 15 13.7415 15H11.5C11.2239 15 11 14.7761 11 14.5ZM16.2792 19L18.277 26.1348C18.3374 26.3507 18.5342 26.5 18.7585 26.5H29.708C29.94 26.5 30.1416 26.3404 30.1947 26.1145L31.7241 19.6145C31.798 19.3007 31.5598 19 31.2374 19H16.2792Z" fill="#6ECB44"/>
  <path fill-rule="evenodd" clip-rule="evenodd" d="M21 31C21.5523 31 22 30.5523 22 30C22 29.4477 21.5523 29 21 29C20.4477 29 20 29.4477 20 30C20 30.5523 20.4477 31 21 31ZM21 32C22.1046 32 23 31.1046 23 30C23 28.8954 22.1046 28 21 28C19.8954 28 19 28.8954 19 30C19 31.1046 19.8954 32 21 32Z" fill="#6ECB44"/>
  <path fill-rule="evenodd" clip-rule="evenodd" d="M27 31C27.5523 31 28 30.5523 28 30C28 29.4477 27.5523 29 27 29C26.4477 29 26 29.4477 26 30C26 30.5523 26.4477 31 27 31ZM27 32C28.1046 32 29 31.1046 29 30C29 28.8954 28.1046 28 27 28C25.8954 28 25 28.8954 25 30C25 31.1046 25.8954 32 27 32Z" fill="#6ECB44"/>
  <defs>
    <linearGradient id="paint0_linear_752_31094" x1="9.79167" y1="8.8125" x2="34.2708" y2="39.1667" gradientUnits="userSpaceOnUse">
      <stop stop-color="#D8EBD0"/>
      <stop offset="1" stop-color="#B4D6A5"/>
    </linearGradient>
  </defs>
</svg>
