<svg xmlns="http://www.w3.org/2000/svg" width="15" height="14" viewBox="0 0 15 14" fill="none">
  <path d="M14.4867 12.5765C14.555 12.6404 14.6091 12.7162 14.6461 12.7996C14.6831 12.8831 14.7021 12.9726 14.7021 13.0629C14.7021 13.1532 14.6831 13.2427 14.6461 13.3261C14.6091 13.4096 14.555 13.4854 14.4867 13.5493C14.4184 13.6132 14.3373 13.6638 14.2481 13.6984C14.1588 13.733 14.0632 13.7508 13.9666 13.7508C13.87 13.7508 13.7744 13.733 13.6852 13.6984C13.5959 13.6638 13.5148 13.6132 13.4465 13.5493L7.35104 7.84734L1.25553 13.5493C1.1176 13.6783 0.930531 13.7508 0.735472 13.7508C0.540412 13.7508 0.353342 13.6783 0.215415 13.5493C0.0774869 13.4203 3.84508e-09 13.2453 0 13.0629C-3.84508e-09 12.8804 0.0774869 12.7055 0.215415 12.5765L6.31184 6.87538L0.215415 1.17429C0.0774869 1.04529 0 0.87032 0 0.687882C0 0.505445 0.0774869 0.330479 0.215415 0.201476C0.353342 0.0724731 0.540412 0 0.735472 0C0.930531 0 1.1176 0.0724731 1.25553 0.201476L7.35104 5.90343L13.4465 0.201476C13.5845 0.0724731 13.7715 -3.59628e-09 13.9666 0C14.1617 3.59628e-09 14.3487 0.0724731 14.4867 0.201476C14.6246 0.330479 14.7021 0.505445 14.7021 0.687882C14.7021 0.87032 14.6246 1.04529 14.4867 1.17429L8.39023 6.87538L14.4867 12.5765Z" fill="#333333"/>
</svg>