<svg xmlns="http://www.w3.org/2000/svg" width="14" height="14" viewBox="0 0 14 14" fill="none">
  <path d="M12.4316 3.69979L9.98758 1.25635C9.90633 1.17508 9.80986 1.11061 9.70369 1.06662C9.59752 1.02264 9.48372 1 9.36879 1C9.25387 1 9.14007 1.02264 9.0339 1.06662C8.92773 1.11061 8.83126 1.17508 8.75001 1.25635L2.00649 7.99987C1.92488 8.08082 1.86019 8.1772 1.81615 8.28338C1.77212 8.38956 1.74964 8.50343 1.75 8.61838V11.0624C1.75 11.2944 1.84219 11.517 2.00629 11.6811C2.17038 11.8452 2.39294 11.9374 2.625 11.9374H11.8125C11.9285 11.9374 12.0398 11.8913 12.1219 11.8092C12.2039 11.7272 12.25 11.6159 12.25 11.4999C12.25 11.3838 12.2039 11.2726 12.1219 11.1905C12.0398 11.1085 11.9285 11.0624 11.8125 11.0624H6.30657L12.4316 4.93737C12.5128 4.85611 12.5773 4.75965 12.6213 4.65347C12.6653 4.5473 12.6879 4.4335 12.6879 4.31858C12.6879 4.20366 12.6653 4.08986 12.6213 3.98368C12.5773 3.87751 12.5128 3.78104 12.4316 3.69979ZM7.43751 3.80588L8.35024 4.71862L3.71875 9.3501L2.80602 8.43737L7.43751 3.80588ZM2.625 11.0624V9.49338L4.19399 11.0624H2.625ZM5.25001 10.8814L4.33782 9.96862L8.96876 5.33713L9.88149 6.24987L5.25001 10.8814ZM10.5 5.63135L8.05657 3.18737L9.36907 1.87487L11.8125 4.31885L10.5 5.63135Z" fill="#6ECB44"/>
</svg>