<svg width="290" height="87" viewBox="0 0 290 87" fill="none" xmlns="http://www.w3.org/2000/svg">
<mask id="mask0_1248_328" style="mask-type:alpha" maskUnits="userSpaceOnUse" x="0" y="0" width="290" height="87">
<path d="M277.646 44.531C277.792 44.5442 277.919 44.4379 277.933 44.2918C277.946 44.1457 277.839 44.0183 277.693 44.0051C277.547 43.9919 277.42 44.0983 277.406 44.2444C277.393 44.3905 277.5 44.5179 277.646 44.531Z" fill="white" fill-opacity="0.7"/>
<path d="M283.583 54.0439C284.926 54.1649 286.113 53.1746 286.233 51.832C286.354 50.4894 285.364 49.3029 284.021 49.182C282.678 49.061 281.491 50.0513 281.37 51.3939C281.249 52.7365 282.24 53.9229 283.583 54.0439Z" fill="white" fill-opacity="0.7"/>
<path d="M290 61.5V59V56.5C290 56.5 287.564 56.4945 287.532 58.7473C287.5 61 290 61.5 290 61.5Z" fill="white" fill-opacity="0.7"/>
<path d="M267.107 48.2887C267.967 48.3661 268.731 47.728 268.809 46.869C268.886 46.01 268.248 45.2455 267.388 45.1681C266.529 45.0907 265.765 45.7288 265.687 46.5878C265.61 47.4468 266.248 48.2113 267.107 48.2887Z" fill="white" fill-opacity="0.7"/>
<path d="M273.186 56.2944C274.414 56.405 275.497 55.5011 275.607 54.2739C275.718 53.0467 274.814 51.9638 273.586 51.8532C272.359 51.7426 271.276 52.6465 271.165 53.8737C271.055 55.1009 271.959 56.1838 273.186 56.2944Z" fill="white" fill-opacity="0.7"/>
<path d="M279.399 62.7452C280.129 62.8109 280.773 62.2729 280.839 61.5435C280.905 60.8141 280.367 60.1696 279.637 60.1039C278.908 60.0381 278.263 60.5761 278.197 61.3055C278.131 62.0349 278.67 62.6795 279.399 62.7452Z" fill="white" fill-opacity="0.7"/>
<path d="M285.556 69.8802C286.17 69.9355 286.712 69.4836 286.767 68.87C286.822 68.2564 286.37 67.7149 285.756 67.6596C285.143 67.6043 284.601 68.0563 284.546 68.6699C284.491 69.2835 284.943 69.825 285.556 69.8802Z" fill="white" fill-opacity="0.7"/>
<path d="M250.638 42.4692C250.988 42.5008 251.295 42.2397 251.326 41.8891C251.358 41.5385 251.097 41.2322 250.752 41.2011C250.407 41.17 250.089 41.43 250.058 41.7748C250.027 42.1196 250.287 42.4376 250.638 42.4692Z" fill="white" fill-opacity="0.7"/>
<path d="M256.652 51.1937C257.762 51.2937 258.743 50.4749 258.843 49.3646C258.943 48.2543 258.124 47.2733 257.014 47.1732C255.903 47.0732 254.922 47.892 254.822 49.0023C254.722 50.1126 255.541 51.0936 256.652 51.1937Z" fill="white" fill-opacity="0.7"/>
<path d="M262.841 57.9074C263.6 57.9758 264.27 57.4163 264.338 56.6579C264.407 55.8995 263.847 55.2292 263.088 55.1609C262.33 55.0926 261.659 55.652 261.591 56.4104C261.523 57.1689 262.082 57.8391 262.841 57.9074Z" fill="white" fill-opacity="0.7"/>
<path d="M269 65.0191C269.626 65.0754 270.18 64.6128 270.237 63.9817C270.294 63.3506 269.83 62.8022 269.205 62.7459C268.58 62.6895 268.019 63.1516 267.963 63.7769C267.907 64.4022 268.369 64.9622 269 65.0191Z" fill="white" fill-opacity="0.7"/>
<path d="M275.138 72.3703C275.763 72.4266 276.318 71.9641 276.375 71.3329C276.431 70.7018 275.968 70.1535 275.343 70.0971C274.717 70.0408 274.157 70.5028 274.101 71.1281C274.044 71.7534 274.507 72.3134 275.138 72.3703Z" fill="white" fill-opacity="0.7"/>
<path d="M281.175 80.7729C282.385 80.8819 283.455 79.9886 283.565 78.7731C283.674 77.5576 282.781 76.4874 281.571 76.3784C280.361 76.2694 279.285 77.1622 279.175 78.3777C279.066 79.5932 279.959 80.6634 281.175 80.7729Z" fill="white" fill-opacity="0.7"/>
<path d="M234.136 37.0003C234.165 37.0029 234.191 36.9815 234.194 36.9524C234.196 36.9234 234.175 36.8977 234.146 36.8951C234.117 36.8925 234.091 36.9139 234.088 36.9429C234.086 36.972 234.107 36.9977 234.136 37.0003Z" fill="white" fill-opacity="0.7"/>
<path d="M240.164 45.567C240.866 45.6302 241.484 45.1144 241.547 44.4132C241.61 43.7119 241.094 43.094 240.393 43.0308C239.691 42.9677 239.073 43.4834 239.01 44.1847C238.947 44.8859 239.463 45.5038 240.164 45.567Z" fill="white" fill-opacity="0.7"/>
<path d="M246.275 53.1515C247.105 53.2262 247.844 52.6094 247.919 51.7796C247.994 50.9498 247.383 50.2114 246.547 50.1361C245.711 50.0608 244.978 50.6723 244.903 51.5079C244.828 52.3436 245.445 53.0767 246.275 53.1515Z" fill="white" fill-opacity="0.7"/>
<path d="M252.442 60.1813C253.097 60.2403 253.676 59.7564 253.736 59.0961C253.795 58.4358 253.311 57.8619 252.656 57.8029C252.002 57.744 251.416 58.2273 251.357 58.8818C251.298 59.5363 251.781 60.1218 252.442 60.1813Z" fill="white" fill-opacity="0.7"/>
<path d="M258.556 67.7955C259.357 67.8676 260.07 67.2721 260.143 66.4715C260.215 65.6709 259.625 64.958 258.818 64.8853C258.012 64.8127 257.304 65.4029 257.232 66.2093C257.159 67.0157 257.755 67.7234 258.556 67.7955Z" fill="white" fill-opacity="0.7"/>
<path d="M264.581 76.3325C266.042 76.4641 267.33 75.3842 267.461 73.9291C267.592 72.4741 266.518 71.1814 265.057 71.0498C263.596 70.9182 262.308 71.998 262.177 73.4531C262.046 74.9082 263.126 76.2014 264.581 76.3325Z" fill="white" fill-opacity="0.7"/>
<path d="M270.674 84.1863C272.41 84.3427 273.945 83.0612 274.101 81.3257C274.258 79.5901 272.976 78.0549 271.24 77.8985C269.504 77.7421 267.968 79.0235 267.812 80.7591C267.656 82.4947 268.938 84.0299 270.674 84.1863Z" fill="white" fill-opacity="0.7"/>
<path d="M223.714 39.5371C223.784 39.5434 223.847 39.4903 223.854 39.4143C223.861 39.3383 223.807 39.2805 223.737 39.2742C223.667 39.2678 223.598 39.3205 223.591 39.3906C223.585 39.4607 223.638 39.5303 223.714 39.5371Z" fill="white" fill-opacity="0.7"/>
<path d="M229.739 48.0741C230.468 48.1398 231.113 47.6018 231.179 46.8724C231.244 46.143 230.706 45.4985 229.977 45.4327C229.247 45.367 228.602 45.905 228.537 46.6344C228.471 47.3638 229.009 48.0084 229.739 48.0741Z" fill="white" fill-opacity="0.7"/>
<path d="M235.876 55.4254C236.606 55.4911 237.251 54.9531 237.316 54.2237C237.382 53.4943 236.844 52.8497 236.114 52.784C235.385 52.7183 234.74 53.2563 234.674 53.9857C234.609 54.7151 235.147 55.3596 235.876 55.4254Z" fill="white" fill-opacity="0.7"/>
<path d="M241.937 63.5708C243.106 63.6761 244.138 62.8147 244.243 61.646C244.348 60.4773 243.487 59.4453 242.318 59.34C241.149 59.2347 240.117 60.0961 240.011 61.2648C239.906 62.4335 240.768 63.4655 241.937 63.5708Z" fill="white" fill-opacity="0.7"/>
<path d="M247.984 71.9213C249.709 72.0766 251.231 70.8058 251.387 69.0819C251.542 67.3581 250.271 65.8356 248.547 65.6803C246.822 65.5249 245.299 66.7957 245.144 68.5196C244.989 70.2435 246.26 71.766 247.984 71.9213Z" fill="white" fill-opacity="0.7"/>
<path d="M254.134 79.1381C255.784 79.2867 257.242 78.0703 257.39 76.4211C257.539 74.7719 256.322 73.3145 254.672 73.1659C253.023 73.0173 251.565 74.2338 251.416 75.8829C251.268 77.5321 252.485 78.9895 254.134 79.1381Z" fill="white" fill-opacity="0.7"/>
<path d="M260.299 86.1207C261.743 86.2508 263.024 85.182 263.154 83.7386C263.284 82.2952 262.221 81.0154 260.771 80.8848C259.321 80.7542 258.047 81.8176 257.917 83.2668C257.786 84.7161 258.85 85.9901 260.299 86.1207Z" fill="white" fill-opacity="0.7"/>
<path d="M213.287 42.05C213.387 42.059 213.482 41.9851 213.491 41.8799C213.501 41.7747 213.426 41.6855 213.321 41.6761C213.216 41.6666 213.126 41.741 213.117 41.8462C213.108 41.9514 213.188 42.0411 213.287 42.05Z" fill="white" fill-opacity="0.7"/>
<path d="M219.282 50.985C220.258 51.0729 221.125 50.3498 221.213 49.3739C221.301 48.398 220.577 47.5316 219.601 47.4437C218.625 47.3558 217.759 48.0789 217.671 49.0548C217.583 50.0307 218.306 50.897 219.282 50.985Z" fill="white" fill-opacity="0.7"/>
<path d="M225.322 59.3641C226.871 59.5036 228.235 58.3599 228.374 56.8114C228.514 55.2628 227.37 53.899 225.826 53.76C224.283 53.621 222.908 54.7637 222.769 56.3064C222.63 57.8491 223.773 59.2246 225.322 59.3641Z" fill="white" fill-opacity="0.7"/>
<path d="M231.419 67.1653C233.217 67.3273 234.806 66.0013 234.968 64.2037C235.13 62.406 233.803 60.8175 232.005 60.6555C230.207 60.4935 228.618 61.8195 228.456 63.6171C228.294 65.4148 229.621 67.0034 231.419 67.1653Z" fill="white" fill-opacity="0.7"/>
<path d="M237.597 74.0666C239.146 74.2061 240.51 73.0624 240.65 71.5139C240.789 69.9653 239.645 68.6015 238.102 68.4625C236.559 68.3235 235.183 69.4662 235.044 71.0089C234.905 72.5516 236.048 73.9271 237.597 74.0666Z" fill="white" fill-opacity="0.7"/>
<path d="M243.755 81.1251C245.141 81.2499 246.37 80.2237 246.495 78.8388C246.62 77.4538 245.593 76.2243 244.208 76.0995C242.823 75.9748 241.594 76.9951 241.468 78.3859C241.343 79.7767 242.37 81.0003 243.755 81.1251Z" fill="white" fill-opacity="0.7"/>
<path d="M196.715 37.3701C196.931 37.3895 197.128 37.2305 197.148 37.0085C197.168 36.7864 197.008 36.5953 196.786 36.5753C196.564 36.5553 196.373 36.7148 196.353 36.9369C196.333 37.1589 196.493 37.3501 196.715 37.3701Z" fill="white" fill-opacity="0.7"/>
<path d="M202.719 46.1997C203.756 46.2931 204.671 45.5289 204.765 44.4929C204.858 43.4569 204.094 42.5415 203.057 42.4481C202.021 42.3548 201.105 43.1189 201.012 44.1549C200.919 45.1909 201.683 46.1064 202.719 46.1997Z" fill="white" fill-opacity="0.7"/>
<path d="M208.727 54.9296C210.525 55.0916 212.114 53.7656 212.276 51.9679C212.438 50.1703 211.111 48.5817 209.313 48.4197C207.515 48.2577 205.926 49.5837 205.764 51.3814C205.603 53.179 206.929 54.7676 208.727 54.9296Z" fill="white" fill-opacity="0.7"/>
<path d="M214.889 62.0062C216.539 62.1548 217.997 60.9383 218.145 59.2891C218.294 57.6399 217.077 56.1825 215.427 56.0339C213.778 55.8853 212.32 57.1018 212.172 58.751C212.023 60.4002 213.24 61.8576 214.889 62.0062Z" fill="white" fill-opacity="0.7"/>
<path d="M221.058 69.0126C222.517 69.144 223.807 68.068 223.938 66.6093C224.07 65.1505 222.993 63.8613 221.534 63.7299C220.075 63.5985 218.786 64.6745 218.654 66.1333C218.523 67.592 219.599 68.8811 221.058 69.0126Z" fill="white" fill-opacity="0.7"/>
<path d="M227.209 76.153C228.552 76.2739 229.739 75.2836 229.86 73.941C229.981 72.5985 228.99 71.412 227.647 71.291C226.304 71.1701 225.118 72.1604 224.997 73.503C224.876 74.8455 225.866 76.032 227.209 76.153Z" fill="white" fill-opacity="0.7"/>
<path d="M233.357 83.3932C234.642 83.5089 235.777 82.5615 235.893 81.277C236.008 79.9925 235.061 78.8573 233.776 78.7416C232.491 78.6259 231.356 79.5733 231.24 80.8578C231.124 82.1423 232.072 83.2774 233.357 83.3932Z" fill="white" fill-opacity="0.7"/>
<path d="M180.061 33.5959C180.891 33.6706 181.63 33.0538 181.704 32.224C181.779 31.3942 181.168 30.6558 180.332 30.5805C179.496 30.5052 178.764 31.1167 178.688 31.9523C178.613 32.788 179.225 33.5206 180.061 33.5959Z" fill="white" fill-opacity="0.7"/>
<path d="M186.094 42.11C187.567 42.2427 188.873 41.1526 189.005 39.68C189.138 38.2074 188.054 36.9021 186.575 36.7689C185.096 36.6356 183.796 37.7203 183.663 39.1988C183.53 40.6772 184.615 41.9767 186.094 42.11Z" fill="white" fill-opacity="0.7"/>
<path d="M192.224 49.4841C193.715 49.6184 195.033 48.5186 195.167 47.0275C195.301 45.5365 194.201 44.2189 192.71 44.0845C191.219 43.9502 189.901 45.05 189.766 46.541C189.632 48.0321 190.732 49.3497 192.224 49.4841Z" fill="white" fill-opacity="0.7"/>
<path d="M198.369 56.7535C199.812 56.8835 201.093 55.8206 201.223 54.3714C201.354 52.9222 200.29 51.6481 198.84 51.5175C197.391 51.3869 196.116 52.4504 195.986 53.8996C195.855 55.3488 196.925 56.6234 198.369 56.7535Z" fill="white" fill-opacity="0.7"/>
<path d="M204.515 63.9405C205.871 64.0627 207.076 63.0578 207.198 61.702C207.32 60.3463 206.32 59.1428 204.958 59.0202C203.597 58.8975 202.399 59.8971 202.276 61.2587C202.153 62.6202 203.159 63.8184 204.515 63.9405Z" fill="white" fill-opacity="0.7"/>
<path d="M210.665 71.1574C211.951 71.2733 213.085 70.3268 213.201 69.0412C213.317 67.7556 212.37 66.6217 211.084 66.5059C209.798 66.39 208.664 67.3365 208.548 68.6221C208.432 69.9077 209.379 71.0416 210.665 71.1574Z" fill="white" fill-opacity="0.7"/>
<path d="M216.81 78.4268C218.055 78.539 219.145 77.6239 219.257 76.3792C219.37 75.1345 218.454 74.0447 217.215 73.933C215.976 73.8214 214.874 74.7354 214.763 75.9743C214.651 77.2131 215.565 78.3147 216.81 78.4268Z" fill="white" fill-opacity="0.7"/>
<path d="M222.947 85.725C224.157 85.834 225.227 84.9407 225.337 83.7252C225.446 82.5097 224.553 81.4395 223.343 81.3305C222.133 81.2215 221.057 82.1143 220.947 83.3298C220.838 84.5452 221.731 85.6154 222.947 85.725Z" fill="white" fill-opacity="0.7"/>
<path d="M151.363 12.6069C151.421 12.6121 151.473 12.5693 151.478 12.5112C151.483 12.4531 151.44 12.4017 151.382 12.3965C151.324 12.3913 151.273 12.4341 151.268 12.4922C151.262 12.5503 151.305 12.6016 151.363 12.6069Z" fill="white" fill-opacity="0.7"/>
<path d="M157.407 20.9335C158.009 20.9877 158.538 20.5464 158.592 19.9445C158.647 19.3426 158.205 18.8197 157.603 18.7655C157.001 18.7113 156.472 19.1526 156.418 19.7486C156.364 20.3447 156.805 20.8793 157.407 20.9335Z" fill="white" fill-opacity="0.7"/>
<path d="M163.46 29.2314C164.583 29.3326 165.576 28.5042 165.677 27.381C165.778 26.2579 164.95 25.2654 163.826 25.1642C162.703 25.063 161.71 25.8914 161.609 27.0145C161.508 28.1377 162.336 29.1302 163.46 29.2314Z" fill="white" fill-opacity="0.7"/>
<path d="M169.589 36.6113C170.729 36.714 171.736 35.8739 171.838 34.7344C171.941 33.5949 171.101 32.5884 169.961 32.4857C168.821 32.383 167.814 33.2231 167.712 34.3627C167.609 35.5022 168.449 36.5087 169.589 36.6113Z" fill="white" fill-opacity="0.7"/>
<path d="M175.785 43.3198C176.572 43.3907 177.268 42.8099 177.339 42.0224C177.41 41.2349 176.829 40.539 176.042 40.468C175.254 40.3971 174.558 40.9779 174.487 41.7654C174.416 42.5529 174.997 43.2488 175.785 43.3198Z" fill="white" fill-opacity="0.7"/>
<path d="M181.948 50.3847C182.574 50.441 183.128 49.9784 183.185 49.3473C183.242 48.7162 182.778 48.1678 182.153 48.1115C181.528 48.0551 180.967 48.5172 180.911 49.1425C180.855 49.7677 181.317 50.3278 181.948 50.3847Z" fill="white" fill-opacity="0.7"/>
<path d="M188.052 58.0509C188.853 58.1231 189.566 57.5276 189.638 56.727C189.71 55.9264 189.121 55.2134 188.314 55.1408C187.507 55.0681 186.8 55.6583 186.727 56.4648C186.655 57.2712 187.245 57.9783 188.052 58.0509Z" fill="white" fill-opacity="0.7"/>
<path d="M194.173 65.5833C195.079 65.6649 195.882 64.995 195.964 64.0892C196.045 63.1835 195.375 62.3866 194.469 62.305C193.563 62.2234 192.76 62.8875 192.679 63.7933C192.597 64.6991 193.267 65.5017 194.173 65.5833Z" fill="white" fill-opacity="0.7"/>
<path d="M200.316 72.8761C201.193 72.9551 201.97 72.3123 202.049 71.4299C202.129 70.5475 201.479 69.7761 200.603 69.6972C199.726 69.6182 198.954 70.2674 198.875 71.1439C198.796 72.0205 199.439 72.7971 200.316 72.8761Z" fill="white" fill-opacity="0.7"/>
<path d="M206.453 80.1684C207.299 80.2446 208.046 79.6209 208.123 78.7753C208.199 77.9297 207.575 77.1825 206.729 77.1063C205.883 77.0301 205.136 77.6538 205.06 78.4994C204.984 79.345 205.608 80.0922 206.453 80.1684Z" fill="white" fill-opacity="0.7"/>
<path d="M134.79 7.87374C134.936 7.88691 135.063 7.78057 135.076 7.63447C135.09 7.48838 134.983 7.36098 134.837 7.34781C134.691 7.33465 134.564 7.44099 134.55 7.58708C134.537 7.73318 134.644 7.86058 134.79 7.87374Z" fill="white" fill-opacity="0.7"/>
<path d="M140.835 16.2535C141.548 16.3177 142.179 15.7913 142.244 15.0726C142.308 14.3538 141.782 13.7231 141.069 13.6589C140.356 13.5947 139.719 14.1205 139.654 14.8393C139.589 15.5581 140.116 16.1887 140.835 16.2535Z" fill="white" fill-opacity="0.7"/>
<path d="M146.932 24.0547C147.897 24.1416 148.75 23.4291 148.837 22.4649C148.924 21.5007 148.211 20.6529 147.246 20.566C146.282 20.4792 145.429 21.1858 145.342 22.15C145.255 23.1142 145.968 23.9678 146.932 24.0547Z" fill="white" fill-opacity="0.7"/>
<path d="M153.105 30.9554C153.824 31.0202 154.454 30.4938 154.519 29.775C154.584 29.0562 154.057 28.4256 153.338 28.3608C152.619 28.296 151.989 28.8224 151.924 29.5412C151.859 30.26 152.386 30.8906 153.105 30.9554Z" fill="white" fill-opacity="0.7"/>
<path d="M159.257 38.143C159.882 38.1994 160.443 37.7373 160.499 37.1062C160.556 36.4751 160.093 35.9267 159.462 35.8699C158.83 35.813 158.276 36.2756 158.22 36.9008C158.164 37.5261 158.626 38.0862 159.257 38.143Z" fill="white" fill-opacity="0.7"/>
<path d="M165.409 45.3365C165.947 45.3849 166.43 44.9867 166.479 44.4491C166.527 43.9114 166.128 43.4337 165.585 43.3847C165.041 43.3357 164.569 43.735 164.521 44.2727C164.472 44.8103 164.871 45.2881 165.409 45.3365Z" fill="white" fill-opacity="0.7"/>
<path d="M171.548 52.6054C172.045 52.6502 172.485 52.2833 172.529 51.7866C172.574 51.2899 172.207 50.8503 171.71 50.8056C171.214 50.7608 170.774 51.1277 170.729 51.6244C170.684 52.1211 171.051 52.5607 171.548 52.6054Z" fill="white" fill-opacity="0.7"/>
<path d="M177.67 60.1378C178.266 60.1915 178.801 59.7507 178.855 59.1488C178.909 58.5469 178.467 58.024 177.865 57.9698C177.263 57.9156 176.734 58.3569 176.68 58.9529C176.627 59.549 177.068 60.0836 177.67 60.1378Z" fill="white" fill-opacity="0.7"/>
<path d="M183.765 67.9624C184.624 68.0398 185.388 67.4075 185.466 66.5427C185.544 65.6778 184.905 64.9192 184.046 64.8418C183.187 64.7644 182.422 65.4025 182.345 66.2615C182.267 67.1205 182.9 67.8844 183.765 67.9624Z" fill="white" fill-opacity="0.7"/>
<path d="M189.901 75.2605C190.734 75.3355 191.47 74.7214 191.545 73.8887C191.62 73.056 191.006 72.3202 190.173 72.2452C189.34 72.1701 188.604 72.7843 188.529 73.617C188.454 74.4496 189.069 75.1855 189.901 75.2605Z" fill="white" fill-opacity="0.7"/>
<path d="M196.042 82.5767C196.859 82.6503 197.581 82.048 197.654 81.2314C197.728 80.4149 197.125 79.6934 196.309 79.6198C195.492 79.5462 194.77 80.1485 194.697 80.965C194.623 81.7815 195.226 82.5031 196.042 82.5767Z" fill="white" fill-opacity="0.7"/>
<path d="M118.246 2.8782C118.333 2.8861 118.41 2.8223 118.418 2.73464C118.426 2.64699 118.362 2.57054 118.274 2.56264C118.186 2.55474 118.11 2.61855 118.102 2.70621C118.094 2.79386 118.158 2.87031 118.246 2.8782Z" fill="white" fill-opacity="0.7"/>
<path d="M124.307 11.0768C124.862 11.1268 125.353 10.7174 125.403 10.1622C125.453 9.60707 125.044 9.11656 124.488 9.06654C123.933 9.01652 123.442 9.42594 123.392 9.98109C123.342 10.5362 123.752 11.0267 124.307 11.0768Z" fill="white" fill-opacity="0.7"/>
<path d="M130.424 18.6618C131.108 18.7234 131.719 18.2188 131.781 17.5292C131.843 16.8397 131.337 16.2403 130.648 16.1782C129.958 16.1161 129.358 16.6217 129.297 17.3054C129.235 17.9892 129.74 18.6002 130.424 18.6618Z" fill="white" fill-opacity="0.7"/>
<path d="M136.57 25.8547C137.172 25.9089 137.701 25.4676 137.755 24.8657C137.809 24.2638 137.367 23.7409 136.765 23.6867C136.163 23.6325 135.634 24.0738 135.581 24.6698C135.527 25.2659 135.968 25.8005 136.57 25.8547Z" fill="white" fill-opacity="0.7"/>
<path d="M142.72 33.0715C143.246 33.1189 143.711 32.7308 143.758 32.2048C143.806 31.6789 143.417 31.2139 142.891 31.1665C142.365 31.1191 141.9 31.5072 141.853 32.0332C141.805 32.5591 142.194 33.0241 142.72 33.0715Z" fill="white" fill-opacity="0.7"/>
<path d="M148.863 40.3644C149.36 40.4091 149.799 40.0422 149.844 39.5455C149.889 39.0488 149.522 38.6093 149.025 38.5645C148.528 38.5198 148.089 38.8866 148.044 39.3833C147.999 39.88 148.366 40.3196 148.863 40.3644Z" fill="white" fill-opacity="0.7"/>
<path d="M154.999 47.6624C155.467 47.7046 155.881 47.3589 155.923 46.8915C155.965 46.424 155.62 46.0099 155.152 45.9678C154.685 45.9256 154.27 46.2713 154.228 46.7388C154.186 47.2062 154.532 47.6203 154.999 47.6624Z" fill="white" fill-opacity="0.7"/>
<path d="M161.14 54.9845C161.596 55.0255 161.991 54.69 162.032 54.2401C162.072 53.7901 161.737 53.3888 161.287 53.3482C160.837 53.3077 160.436 53.6427 160.395 54.0926C160.355 54.5426 160.69 54.9439 161.14 54.9845Z" fill="white" fill-opacity="0.7"/>
<path d="M167.274 62.306C167.713 62.3454 168.101 62.0211 168.141 61.5828C168.18 61.1446 167.856 60.756 167.418 60.7165C166.979 60.677 166.591 61.0013 166.551 61.4396C166.512 61.8779 166.836 62.2665 167.274 62.306Z" fill="white" fill-opacity="0.7"/>
<path d="M173.353 70.3175C174.153 70.3897 174.867 69.7942 174.939 68.9936C175.011 68.193 174.421 67.48 173.615 67.4074C172.808 67.3347 172.101 67.9249 172.028 68.7314C171.956 69.5378 172.546 70.2449 173.353 70.3175Z" fill="white" fill-opacity="0.7"/>
<path d="M179.491 77.6629C180.295 77.7353 181.005 77.1426 181.077 76.339C181.15 75.5354 180.557 74.8252 179.753 74.7528C178.949 74.6804 178.239 75.2731 178.167 76.0768C178.094 76.8804 178.687 77.5905 179.491 77.6629Z" fill="white" fill-opacity="0.7"/>
<path d="M185.623 85.0136C186.427 85.0861 187.137 84.4933 187.209 83.6897C187.282 82.886 186.689 82.1759 185.885 82.1035C185.081 82.0311 184.371 82.6238 184.299 83.4274C184.226 84.2311 184.819 84.9412 185.623 85.0136Z" fill="white" fill-opacity="0.7"/>
<path d="M107.787 5.81825C108.138 5.84985 108.45 5.58931 108.481 5.23869C108.513 4.88807 108.252 4.58177 107.901 4.55018C107.55 4.51858 107.244 4.77965 107.213 5.12443C107.182 5.4692 107.442 5.78719 107.787 5.81825Z" fill="white" fill-opacity="0.7"/>
<path d="M113.887 13.5903C114.471 13.6429 114.987 13.212 115.04 12.6279C115.092 12.0437 114.661 11.5275 114.077 11.4748C113.493 11.4222 112.977 11.8531 112.924 12.4372C112.871 13.0214 113.302 13.5376 113.887 13.5903Z" fill="white" fill-opacity="0.7"/>
<path d="M120.029 20.8299C120.555 20.8773 121.02 20.4891 121.067 19.9632C121.115 19.4373 120.726 18.9723 120.2 18.9249C119.674 18.8775 119.209 19.2656 119.162 19.7916C119.114 20.3175 119.503 20.7825 120.029 20.8299Z" fill="white" fill-opacity="0.7"/>
<path d="M126.171 28.1286C126.668 28.1733 127.108 27.8065 127.152 27.3098C127.197 26.813 126.83 26.3735 126.333 26.3287C125.836 26.284 125.397 26.6509 125.352 27.1476C125.307 27.6443 125.674 28.0838 126.171 28.1286Z" fill="white" fill-opacity="0.7"/>
<path d="M132.308 35.4209C132.776 35.463 133.19 35.1174 133.232 34.6499C133.274 34.1824 132.928 33.7683 132.461 33.7262C131.993 33.6841 131.579 34.0297 131.537 34.4972C131.495 34.9647 131.841 35.3787 132.308 35.4209Z" fill="white" fill-opacity="0.7"/>
<path d="M138.449 42.7429C138.904 42.7839 139.3 42.4484 139.341 41.9985C139.381 41.5485 139.046 41.1472 138.596 41.1066C138.146 41.0661 137.744 41.4011 137.704 41.8511C137.663 42.301 137.999 42.7023 138.449 42.7429Z" fill="white" fill-opacity="0.7"/>
<path d="M144.588 50.0707C145.027 50.1102 145.415 49.7859 145.455 49.3476C145.494 48.9093 145.17 48.5207 144.732 48.4812C144.293 48.4417 143.905 48.7661 143.865 49.2044C143.826 49.6426 144.15 50.0312 144.588 50.0707Z" fill="white" fill-opacity="0.7"/>
<path d="M150.723 57.3864C151.146 57.4245 151.52 57.1126 151.558 56.6898C151.596 56.267 151.284 55.8934 150.861 55.8553C150.439 55.8172 150.065 56.1291 150.027 56.5519C149.989 56.9746 150.301 57.3483 150.723 57.3864Z" fill="white" fill-opacity="0.7"/>
<path d="M156.861 64.7376C157.284 64.7757 157.658 64.4639 157.696 64.0411C157.734 63.6183 157.422 63.2447 156.999 63.2066C156.576 63.1685 156.203 63.4803 156.165 63.9031C156.126 64.3259 156.438 64.6995 156.861 64.7376Z" fill="white" fill-opacity="0.7"/>
<path d="M162.968 72.4336C163.581 72.4889 164.123 72.0366 164.179 71.4234C164.234 70.8102 163.781 70.2683 163.168 70.213C162.555 70.1578 162.013 70.6101 161.957 71.2233C161.902 71.8365 162.355 72.3784 162.968 72.4336Z" fill="white" fill-opacity="0.7"/>
<path d="M169.069 80.1233C169.87 80.1954 170.583 79.6058 170.656 78.7993C170.728 77.9929 170.138 77.2858 169.331 77.2132C168.525 77.1405 167.818 77.7307 167.745 78.5371C167.672 79.3436 168.263 80.0506 169.069 80.1233Z" fill="white" fill-opacity="0.7"/>
<path d="M91.2833 0.37275C91.3301 0.376962 91.3683 0.34506 91.3726 0.298311C91.3768 0.251561 91.3443 0.219181 91.2976 0.214968C91.2508 0.210756 91.2184 0.243188 91.2147 0.284094C91.2105 0.330843 91.2424 0.369064 91.2833 0.37275Z" fill="white" fill-opacity="0.7"/>
<path d="M97.351 8.43638C97.7894 8.47587 98.178 8.15153 98.2175 7.71325C98.257 7.27498 97.9326 6.88639 97.4942 6.8469C97.0558 6.80741 96.6671 7.13176 96.6276 7.57003C96.5882 8.00831 96.9126 8.39689 97.351 8.43638Z" fill="white" fill-opacity="0.7"/>
<path d="M103.482 15.8636C103.967 15.9073 104.388 15.5505 104.431 15.0713C104.474 14.5922 104.118 14.1654 103.639 14.1222C103.159 14.079 102.733 14.4353 102.689 14.9144C102.646 15.3936 103.003 15.8204 103.482 15.8636Z" fill="white" fill-opacity="0.7"/>
<path d="M109.622 23.1856C110.09 23.2277 110.504 22.8821 110.546 22.4146C110.588 21.9471 110.243 21.533 109.775 21.4909C109.307 21.4488 108.893 21.7944 108.851 22.2619C108.809 22.7294 109.155 23.1435 109.622 23.1856Z" fill="white" fill-opacity="0.7"/>
<path d="M115.759 30.4837C116.197 30.5232 116.586 30.1989 116.625 29.7606C116.665 29.3223 116.346 28.9343 115.902 28.8942C115.458 28.8542 115.075 29.1791 115.036 29.6174C114.996 30.0556 115.321 30.4442 115.759 30.4837Z" fill="white" fill-opacity="0.7"/>
<path d="M121.9 37.7999C122.323 37.838 122.696 37.5261 122.734 37.1033C122.773 36.6805 122.461 36.3069 122.038 36.2688C121.615 36.2307 121.241 36.5426 121.203 36.9654C121.165 37.3882 121.477 37.7618 121.9 37.7999Z" fill="white" fill-opacity="0.7"/>
<path d="M128.038 45.1511C128.46 45.1892 128.834 44.8774 128.872 44.4546C128.91 44.0318 128.598 43.6582 128.176 43.6201C127.753 43.582 127.379 43.8938 127.341 44.3166C127.303 44.7394 127.615 45.113 128.038 45.1511Z" fill="white" fill-opacity="0.7"/>
<path d="M134.172 52.4726C134.581 52.5095 134.944 52.2064 134.981 51.7973C135.018 51.3883 134.715 51.0252 134.306 50.9883C133.897 50.9515 133.539 51.2551 133.503 51.6641C133.466 52.0732 133.769 52.4363 134.172 52.4726Z" fill="white" fill-opacity="0.7"/>
<path d="M140.31 59.8239C140.719 59.8607 141.082 59.5577 141.119 59.1486C141.156 58.7395 140.853 58.3764 140.444 58.3396C140.034 58.3027 139.671 58.6058 139.634 59.0149C139.598 59.4239 139.901 59.787 140.31 59.8239Z" fill="white" fill-opacity="0.7"/>
<path d="M146.448 67.1751C146.857 67.212 147.22 66.9089 147.257 66.4998C147.294 66.0908 146.99 65.7277 146.581 65.6908C146.172 65.6539 145.809 65.957 145.772 66.3661C145.735 66.7751 146.038 67.1382 146.448 67.1751Z" fill="white" fill-opacity="0.7"/>
<path d="M152.578 74.5434C153.001 74.5815 153.375 74.2696 153.413 73.8468C153.451 73.424 153.139 73.0504 152.716 73.0123C152.293 72.9742 151.919 73.2861 151.881 73.7089C151.843 74.1316 152.155 74.5053 152.578 74.5434Z" fill="white" fill-opacity="0.7"/>
<path d="M158.658 82.5315C159.43 82.601 160.118 82.0268 160.188 81.2554C160.257 80.4841 159.688 79.7966 158.911 79.7266C158.134 79.6566 157.452 80.2255 157.382 81.0027C157.312 81.7799 157.881 82.4615 158.658 82.5315Z" fill="white" fill-opacity="0.7"/>
<path d="M80.857 2.88566C80.933 2.8925 80.9967 2.83933 81.0035 2.76336C81.0104 2.6874 80.9567 2.62954 80.8807 2.62269C80.8047 2.61585 80.7468 2.66954 80.7405 2.73967C80.7342 2.80979 80.7868 2.87934 80.857 2.88566Z" fill="white" fill-opacity="0.7"/>
<path d="M86.9358 10.8914C87.3741 10.9309 87.7628 10.6065 87.8023 10.1683C87.8418 9.73 87.5173 9.34141 87.0789 9.30192C86.6406 9.26243 86.2519 9.58677 86.2124 10.025C86.1729 10.4633 86.4915 10.8514 86.9358 10.8914Z" fill="white" fill-opacity="0.7"/>
<path d="M93.0735 18.2427C93.5119 18.2821 93.9006 17.9578 93.94 17.5195C93.9795 17.0813 93.6551 16.6927 93.2167 16.6532C92.7783 16.6137 92.3897 16.938 92.3502 17.3763C92.3107 17.8146 92.6351 18.2032 93.0735 18.2427Z" fill="white" fill-opacity="0.7"/>
<path d="M99.208 25.5642C99.6347 25.6026 100.005 25.2884 100.043 24.8676C100.081 24.4469 99.7668 24.071 99.3459 24.0331C98.9251 23.9952 98.5492 24.3089 98.5113 24.7297C98.4734 25.1504 98.7872 25.5262 99.208 25.5642Z" fill="white" fill-opacity="0.7"/>
<path d="M105.346 32.9154C105.773 32.9538 106.143 32.6396 106.18 32.2188C106.218 31.7981 105.905 31.4222 105.484 31.3843C105.063 31.3464 104.687 31.6601 104.649 32.0809C104.611 32.5016 104.925 32.8774 105.346 32.9154Z" fill="white" fill-opacity="0.7"/>
<path d="M111.486 40.2374C111.895 40.2743 112.259 39.9712 112.295 39.5621C112.332 39.1531 112.029 38.79 111.62 38.7531C111.211 38.7163 110.848 39.0193 110.811 39.4284C110.774 39.8375 111.077 40.2006 111.486 40.2374Z" fill="white" fill-opacity="0.7"/>
<path d="M117.621 47.5589C118.015 47.5944 118.363 47.304 118.398 46.9102C118.433 46.5165 118.143 46.1685 117.749 46.133C117.355 46.0976 117.007 46.388 116.972 46.7817C116.936 47.1755 117.227 47.5234 117.621 47.5589Z" fill="white" fill-opacity="0.7"/>
<path d="M123.759 54.9043C124.153 54.9398 124.501 54.6493 124.536 54.2556C124.572 53.8618 124.281 53.5139 123.887 53.4784C123.494 53.4429 123.146 53.7334 123.11 54.1271C123.075 54.5208 123.365 54.8688 123.759 54.9043Z" fill="white" fill-opacity="0.7"/>
<path d="M129.891 62.255C130.285 62.2905 130.633 62 130.668 61.6063C130.704 61.2126 130.413 60.8646 130.019 60.8291C129.626 60.7936 129.277 61.0841 129.242 61.4778C129.207 61.8716 129.497 62.2195 129.891 62.255Z" fill="white" fill-opacity="0.7"/>
<path d="M136.029 69.6062C136.42 69.6415 136.771 69.349 136.806 68.9575C136.841 68.566 136.549 68.2156 136.157 68.1804C135.765 68.1451 135.415 68.4375 135.38 68.829C135.344 69.2206 135.637 69.5709 136.029 69.6062Z" fill="white" fill-opacity="0.7"/>
<path d="M142.167 76.9516C142.561 76.9871 142.909 76.6967 142.944 76.3029C142.98 75.9092 142.689 75.5613 142.295 75.5258C141.902 75.4903 141.554 75.7807 141.518 76.1745C141.483 76.5682 141.773 76.9162 142.167 76.9516Z" fill="white" fill-opacity="0.7"/>
<path d="M148.263 84.6997C148.877 84.755 149.418 84.303 149.474 83.6895C149.529 83.0759 149.077 82.5344 148.463 82.4791C147.849 82.4238 147.308 82.8758 147.252 83.4894C147.197 84.103 147.649 84.6444 148.263 84.6997Z" fill="white" fill-opacity="0.7"/>
<path d="M70.4412 5.34653C70.5172 5.35338 70.5809 5.30021 70.5878 5.22424C70.5946 5.14827 70.5409 5.09041 70.4649 5.08357C70.3889 5.07672 70.3311 5.13042 70.3247 5.20055C70.3184 5.27067 70.3711 5.34021 70.4412 5.34653Z" fill="white" fill-opacity="0.7"/>
<path d="M76.5248 13.2997C76.9339 13.3365 77.2971 13.0334 77.3339 12.6244C77.3708 12.2153 77.0676 11.8522 76.6585 11.8154C76.2493 11.7785 75.8861 12.0816 75.8493 12.4906C75.8124 12.8997 76.1156 13.2628 76.5248 13.2997Z" fill="white" fill-opacity="0.7"/>
<path d="M82.6566 20.6504C83.0658 20.6872 83.4289 20.3842 83.4658 19.9751C83.5026 19.566 83.1995 19.2029 82.7903 19.1661C82.3812 19.1292 82.018 19.4323 81.9811 19.8414C81.9443 20.2504 82.2475 20.6135 82.6566 20.6504Z" fill="white" fill-opacity="0.7"/>
<path d="M88.7949 27.9958C89.2041 28.0326 89.5672 27.7296 89.6041 27.3205C89.6409 26.9114 89.3378 26.5483 88.9286 26.5115C88.5195 26.4746 88.1563 26.7777 88.1194 27.1868C88.0826 27.5958 88.3858 27.9589 88.7949 27.9958Z" fill="white" fill-opacity="0.7"/>
<path d="M94.9295 35.3173C95.3211 35.3525 95.6715 35.0601 95.7068 34.6686C95.7421 34.2771 95.4495 33.9267 95.0579 33.8914C94.6663 33.8561 94.3158 34.1486 94.2806 34.5401C94.2453 34.9316 94.5378 35.282 94.9295 35.3173Z" fill="white" fill-opacity="0.7"/>
<path d="M101.069 42.6452C101.449 42.6794 101.787 42.3976 101.821 42.0177C101.855 41.6379 101.573 41.3061 101.193 41.2719C100.813 41.2377 100.481 41.52 100.448 41.894C100.414 42.268 100.695 42.6115 101.069 42.6452Z" fill="white" fill-opacity="0.7"/>
<path d="M107.208 49.9905C107.588 50.0248 107.925 49.743 107.959 49.3631C107.994 48.9833 107.711 48.6515 107.331 48.6173C106.951 48.5831 106.62 48.8654 106.586 49.2394C106.552 49.6134 106.833 49.9568 107.208 49.9905Z" fill="white" fill-opacity="0.7"/>
<path d="M113.339 57.3413C113.719 57.3755 114.057 57.0937 114.091 56.7139C114.126 56.334 113.843 56.0022 113.463 55.968C113.083 55.9338 112.751 56.2161 112.718 56.5901C112.684 56.9641 112.965 57.3076 113.339 57.3413Z" fill="white" fill-opacity="0.7"/>
<path d="M119.477 64.6925C119.857 64.7267 120.195 64.4449 120.229 64.0651C120.263 63.6852 119.981 63.3535 119.601 63.3192C119.221 63.285 118.889 63.5673 118.855 63.9413C118.822 64.3153 119.103 64.6588 119.477 64.6925Z" fill="white" fill-opacity="0.7"/>
<path d="M125.615 72.0379C125.995 72.0721 126.327 71.7898 126.361 71.41C126.396 71.0301 126.113 70.6983 125.739 70.6646C125.365 70.6309 125.027 70.9127 124.994 71.2867C124.96 71.6607 125.241 72.0042 125.615 72.0379Z" fill="white" fill-opacity="0.7"/>
<path d="M131.745 79.412C132.139 79.4475 132.487 79.157 132.523 78.7633C132.558 78.3696 132.268 78.0216 131.874 77.9861C131.48 77.9507 131.132 78.2411 131.096 78.6348C131.061 79.0286 131.351 79.3765 131.745 79.412Z" fill="white" fill-opacity="0.7"/>
<path d="M60.027 7.72507C60.056 7.72768 60.0817 7.70625 60.0843 7.6772C60.0869 7.64816 60.0655 7.62249 60.0364 7.61987C60.0074 7.61726 59.9817 7.63868 59.9791 7.66773C59.9765 7.69677 59.9979 7.72245 60.027 7.72507Z" fill="white" fill-opacity="0.7"/>
<path d="M66.1079 15.7074C66.4878 15.7416 66.8255 15.4598 66.8597 15.08C66.8939 14.7002 66.6115 14.3684 66.2316 14.3342C65.8516 14.2999 65.5198 14.5823 65.4861 14.9563C65.4524 15.3302 65.7338 15.6737 66.1079 15.7074Z" fill="white" fill-opacity="0.7"/>
<path d="M72.2435 23.082C72.6351 23.1173 72.9855 22.8249 73.0208 22.4333C73.0561 22.0418 72.7636 21.6915 72.3719 21.6562C71.9803 21.6209 71.6299 21.9133 71.5946 22.3049C71.5593 22.6964 71.8519 23.0468 72.2435 23.082Z" fill="white" fill-opacity="0.7"/>
<path d="M78.3781 30.4035C78.758 30.4377 79.0957 30.1559 79.1299 29.7761C79.1641 29.3963 78.8817 29.0645 78.5018 29.0303C78.1218 28.996 77.79 29.2784 77.7563 29.6524C77.7226 30.0264 78.004 30.3698 78.3781 30.4035Z" fill="white" fill-opacity="0.7"/>
<path d="M84.5157 37.7548C84.8957 37.789 85.2334 37.5072 85.2676 37.1274C85.3018 36.7475 85.0194 36.4157 84.6395 36.3815C84.2595 36.3473 83.9277 36.6296 83.894 37.0036C83.8603 37.3776 84.1417 37.7211 84.5157 37.7548Z" fill="white" fill-opacity="0.7"/>
<path d="M90.6536 45.106C91.0335 45.1403 91.3712 44.8584 91.4054 44.4786C91.4396 44.0988 91.1572 43.767 90.7773 43.7328C90.3973 43.6985 90.0655 43.9809 90.0318 44.3549C89.9981 44.7289 90.2795 45.0723 90.6536 45.106Z" fill="white" fill-opacity="0.7"/>
<path d="M96.786 52.4509C97.1659 52.4851 97.5036 52.2033 97.5378 51.8235C97.5721 51.4436 97.2896 51.1118 96.9097 51.0776C96.5298 51.0434 96.1979 51.3257 96.1643 51.6997C96.1306 52.0737 96.4119 52.4172 96.786 52.4509Z" fill="white" fill-opacity="0.7"/>
<path d="M102.924 59.8021C103.304 59.8363 103.641 59.5545 103.676 59.1747C103.71 58.7949 103.427 58.4631 103.047 58.4289C102.667 58.3946 102.33 58.6764 102.296 59.0504C102.262 59.4244 102.544 59.7679 102.924 59.8021Z" fill="white" fill-opacity="0.7"/>
<path d="M109.062 67.1475C109.442 67.1817 109.78 66.8999 109.814 66.5201C109.848 66.1402 109.566 65.8085 109.186 65.7742C108.806 65.74 108.474 66.0223 108.44 66.3963C108.407 66.7703 108.688 67.1138 109.062 67.1475Z" fill="white" fill-opacity="0.7"/>
<path d="M115.194 74.4982C115.574 74.5324 115.912 74.2506 115.946 73.8708C115.98 73.491 115.698 73.1592 115.318 73.125C114.938 73.0907 114.606 73.3731 114.572 73.7471C114.538 74.1211 114.82 74.4645 115.194 74.4982Z" fill="white" fill-opacity="0.7"/>
<path d="M121.332 81.8495C121.712 81.8837 122.049 81.6019 122.084 81.2221C122.118 80.8422 121.835 80.5104 121.455 80.4762C121.075 80.442 120.744 80.7243 120.71 81.0983C120.676 81.4723 120.958 81.8158 121.332 81.8495Z" fill="white" fill-opacity="0.7"/>
<path d="M55.7089 17.9813C55.9865 18.0063 56.2319 17.8016 56.2569 17.524C56.2819 17.2465 56.0771 17.0012 55.7994 16.9762C55.5218 16.9512 55.2765 17.1559 55.2515 17.4335C55.2265 17.711 55.4313 17.9563 55.7089 17.9813Z" fill="white" fill-opacity="0.7"/>
<path d="M61.8245 25.5132C62.2045 25.5474 62.5421 25.2656 62.5764 24.8857C62.6106 24.5059 62.3282 24.1741 61.9482 24.1399C61.5683 24.1057 61.2365 24.388 61.2028 24.762C61.1691 25.136 61.4504 25.4795 61.8245 25.5132Z" fill="white" fill-opacity="0.7"/>
<path d="M67.9623 32.8644C68.3422 32.8986 68.6799 32.6168 68.7141 32.237C68.7483 31.8571 68.4659 31.5254 68.086 31.4911C67.7061 31.4569 67.3742 31.7392 67.3405 32.1132C67.3068 32.4872 67.5882 32.8307 67.9623 32.8644Z" fill="white" fill-opacity="0.7"/>
<path d="M74.1027 40.1864C74.4675 40.2193 74.7898 39.9503 74.8227 39.5856C74.8555 39.2209 74.5864 38.8986 74.2217 38.8658C73.8569 38.8329 73.5345 39.1019 73.5017 39.4666C73.4688 39.8313 73.7379 40.1536 74.1027 40.1864Z" fill="white" fill-opacity="0.7"/>
<path d="M80.2351 47.5313C80.5999 47.5642 80.9222 47.2951 80.9551 46.9305C80.9879 46.5658 80.7188 46.2435 80.3541 46.2106C79.9893 46.1778 79.6669 46.4468 79.6341 46.8115C79.6012 47.1761 79.8703 47.4984 80.2351 47.5313Z" fill="white" fill-opacity="0.7"/>
<path d="M86.3728 54.8825C86.7376 54.9154 87.06 54.6464 87.0928 54.2817C87.1257 53.917 86.8566 53.5947 86.4918 53.5619C86.127 53.529 85.8047 53.798 85.7718 54.1627C85.739 54.5274 86.0081 54.8497 86.3728 54.8825Z" fill="white" fill-opacity="0.7"/>
<path d="M92.5069 62.2099C92.8576 62.2415 93.1698 61.9809 93.2014 61.6303C93.2329 61.2797 92.9718 60.9734 92.6211 60.9418C92.2704 60.9102 91.964 61.1713 91.933 61.5161C91.9019 61.8608 92.162 62.1788 92.5069 62.2099Z" fill="white" fill-opacity="0.7"/>
<path d="M98.6404 69.6079C99.0203 69.6421 99.358 69.3603 99.3922 68.9805C99.4264 68.6006 99.144 68.2688 98.7641 68.2346C98.3842 68.2004 98.0523 68.4827 98.0186 68.8567C97.9849 69.2307 98.2663 69.5742 98.6404 69.6079Z" fill="white" fill-opacity="0.7"/>
<path d="M104.781 76.9299C105.146 76.9627 105.468 76.6937 105.501 76.329C105.534 75.9644 105.265 75.6421 104.9 75.6092C104.535 75.5763 104.213 75.8454 104.18 76.21C104.147 76.5747 104.416 76.897 104.781 76.9299Z" fill="white" fill-opacity="0.7"/>
<path d="M110.903 84.3857C111.326 84.4238 111.7 84.112 111.738 83.6892C111.776 83.2664 111.464 82.8928 111.041 82.8547C110.618 82.8166 110.245 83.1285 110.206 83.5512C110.168 83.974 110.48 84.3477 110.903 84.3857Z" fill="white" fill-opacity="0.7"/>
<path d="M45.311 20.1787C45.4396 20.1903 45.5601 20.0951 45.5722 19.9607C45.5843 19.8263 45.4886 19.7116 45.3542 19.6995C45.2197 19.6874 45.105 19.7831 45.0929 19.9175C45.0808 20.0519 45.1766 20.1666 45.311 20.1787Z" fill="white" fill-opacity="0.7"/>
<path d="M51.4114 27.9448C51.7762 27.9777 52.0985 27.7087 52.1314 27.344C52.1642 26.9793 51.8952 26.657 51.5304 26.6242C51.1656 26.5913 50.8433 26.8603 50.8104 27.225C50.7775 27.5897 51.0466 27.912 51.4114 27.9448Z" fill="white" fill-opacity="0.7"/>
<path d="M57.5433 35.2955C57.9081 35.3284 58.2304 35.0594 58.2633 34.6947C58.2961 34.33 58.0271 34.0077 57.6623 33.9749C57.2975 33.942 56.9752 34.211 56.9423 34.5757C56.9094 34.9404 57.1785 35.2627 57.5433 35.2955Z" fill="white" fill-opacity="0.7"/>
<path d="M63.6811 42.6468C64.0493 42.68 64.3679 42.4141 64.4011 42.0459C64.4342 41.6778 64.1683 41.3593 63.8 41.3261C63.4318 41.293 63.1127 41.5646 63.0801 41.9269C63.0474 42.2893 63.3187 42.6141 63.6811 42.6468Z" fill="white" fill-opacity="0.7"/>
<path d="M69.8193 49.9922C70.1876 50.0254 70.5061 49.7595 70.5393 49.3913C70.5725 49.0232 70.3065 48.7047 69.9383 48.6715C69.57 48.6384 69.2509 48.91 69.2183 49.2723C69.1857 49.6347 69.4569 49.9595 69.8193 49.9922Z" fill="white" fill-opacity="0.7"/>
<path d="M75.9512 57.3429C76.3136 57.3756 76.6385 57.1044 76.6712 56.7421C76.7038 56.3798 76.4326 56.0549 76.0702 56.0222C75.7078 55.9896 75.3828 56.2608 75.3502 56.6231C75.3176 56.9854 75.5888 57.3103 75.9512 57.3429Z" fill="white" fill-opacity="0.7"/>
<path d="M82.089 64.6941C82.4538 64.727 82.7762 64.458 82.809 64.0933C82.8419 63.7286 82.5728 63.4063 82.208 63.3735C81.8432 63.3406 81.5209 63.6096 81.488 63.9743C81.4552 64.339 81.7242 64.6613 82.089 64.6941Z" fill="white" fill-opacity="0.7"/>
<path d="M88.2199 72.1213C88.6291 72.1582 88.9922 71.8551 89.0291 71.446C89.0659 71.037 88.7628 70.6739 88.3536 70.637C87.9445 70.6002 87.5813 70.9032 87.5444 71.3123C87.5076 71.7214 87.8107 72.0844 88.2199 72.1213Z" fill="white" fill-opacity="0.7"/>
<path d="M94.2997 80.0506C95.0292 80.1163 95.6739 79.5783 95.7396 78.8489C95.8054 78.1195 95.2672 77.475 94.5376 77.4092C93.8081 77.3435 93.1634 77.8815 93.0977 78.6109C93.032 79.3403 93.5701 79.9849 94.2997 80.0506Z" fill="white" fill-opacity="0.7"/>
<path d="M40.9966 30.3292C41.3181 30.3581 41.6048 30.1189 41.6338 29.7975C41.6627 29.4761 41.4229 29.1952 41.1014 29.1663C40.7799 29.1373 40.499 29.3771 40.4706 29.6927C40.4422 30.0082 40.681 30.3007 40.9966 30.3292Z" fill="white" fill-opacity="0.7"/>
<path d="M47.1275 37.7564C47.4923 37.7893 47.8147 37.5203 47.8475 37.1556C47.8804 36.7909 47.6113 36.4686 47.2465 36.4357C46.8817 36.4029 46.5594 36.6719 46.5265 37.0366C46.4937 37.4013 46.7628 37.7236 47.1275 37.7564Z" fill="white" fill-opacity="0.7"/>
<path d="M53.2679 45.0784C53.6186 45.11 53.9308 44.8495 53.9624 44.4988C53.994 44.1482 53.7328 43.8419 53.3821 43.8103C53.0314 43.7787 52.7251 44.0398 52.694 44.3846C52.663 44.7294 52.923 45.0473 53.2679 45.0784Z" fill="white" fill-opacity="0.7"/>
<path d="M59.3999 52.4292C59.7506 52.4608 60.0628 52.2002 60.0944 51.8496C60.1259 51.499 59.8648 51.1927 59.5141 51.1611C59.1634 51.1295 58.857 51.3906 58.826 51.7353C58.7949 52.0801 59.055 52.3981 59.3999 52.4292Z" fill="white" fill-opacity="0.7"/>
<path d="M65.5354 59.8037C65.9002 59.8366 66.2226 59.5676 66.2554 59.2029C66.2883 58.8382 66.0192 58.5159 65.6544 58.4831C65.2896 58.4502 64.9673 58.7192 64.9344 59.0839C64.9016 59.4486 65.1707 59.7709 65.5354 59.8037Z" fill="white" fill-opacity="0.7"/>
<path d="M71.6332 67.5991C72.2466 67.6544 72.7886 67.2021 72.8438 66.5889C72.899 65.9757 72.4466 65.4338 71.8332 65.3785C71.2199 65.3233 70.6779 65.7756 70.6227 66.3888C70.5674 67.002 71.0199 67.5439 71.6332 67.5991Z" fill="white" fill-opacity="0.7"/>
<path d="M77.6794 75.9024C78.8191 76.005 79.8258 75.1649 79.9285 74.0254C80.0312 72.8859 79.1908 71.8794 78.051 71.7767C76.9112 71.674 75.9045 72.5141 75.8019 73.6537C75.6992 74.7932 76.5396 75.7997 77.6794 75.9024Z" fill="white" fill-opacity="0.7"/>
<path d="M83.7744 83.7269C85.1755 83.8531 86.4135 82.82 86.5397 81.4193C86.6658 80.0186 85.6324 78.7808 84.2314 78.6546C82.8303 78.5284 81.5923 79.5616 81.4661 80.9623C81.34 82.3629 82.3734 83.6007 83.7744 83.7269Z" fill="white" fill-opacity="0.7"/>
<path d="M30.6119 32.4453C30.7463 32.4574 30.861 32.3617 30.8731 32.2273C30.8852 32.0929 30.7895 31.9782 30.6551 31.9661C30.5206 31.954 30.4059 32.0497 30.3938 32.1841C30.3817 32.3185 30.4775 32.4332 30.6119 32.4453Z" fill="white" fill-opacity="0.7"/>
<path d="M36.7144 40.1881C37.0651 40.2197 37.3773 39.9591 37.4089 39.6085C37.4405 39.2579 37.1794 38.9516 36.8287 38.92C36.478 38.8884 36.1716 39.1495 36.1405 39.4942C36.1095 39.839 36.3696 40.157 36.7144 40.1881Z" fill="white" fill-opacity="0.7"/>
<path d="M42.8463 47.5388C43.197 47.5704 43.5092 47.3098 43.5408 46.9592C43.5724 46.6086 43.3112 46.3023 42.9605 46.2707C42.6098 46.2391 42.3034 46.5002 42.2724 46.8449C42.2413 47.1897 42.5014 47.5077 42.8463 47.5388Z" fill="white" fill-opacity="0.7"/>
<path d="M48.9772 54.966C49.3711 55.0014 49.7191 54.711 49.7546 54.3173C49.79 53.9235 49.4995 53.5756 49.1057 53.5401C48.7119 53.5046 48.3638 53.795 48.3284 54.1888C48.2929 54.5825 48.5834 54.9305 48.9772 54.966Z" fill="white" fill-opacity="0.7"/>
<path d="M55.0307 63.1874C55.9075 63.2664 56.6843 62.6235 56.7637 61.7411C56.8432 60.8587 56.1997 60.088 55.3171 60.0084C54.4345 59.9289 53.6688 60.5787 53.5899 61.4552C53.5109 62.3318 54.1539 63.1084 55.0307 63.1874Z" fill="white" fill-opacity="0.7"/>
<path d="M61.0758 71.5671C62.5254 71.6977 63.8002 70.6284 63.9302 69.1851C64.0602 67.7417 62.997 66.4618 61.5475 66.3312C60.0979 66.2006 58.8236 67.264 58.693 68.7133C58.5625 70.1625 59.6262 71.4366 61.0758 71.5671Z" fill="white" fill-opacity="0.7"/>
<path d="M67.2088 78.9709C68.6818 79.1036 69.9874 78.0195 70.1206 76.541C70.2538 75.0626 69.1629 73.7625 67.69 73.6298C66.217 73.4971 64.9114 74.5813 64.7782 76.0597C64.645 77.5382 65.73 78.8377 67.2088 78.9709Z" fill="white" fill-opacity="0.7"/>
<path d="M73.3581 86.1288C74.73 86.2524 75.9424 85.2407 76.066 83.869C76.1895 82.4974 75.1775 81.2853 73.8055 81.1617C72.4336 81.0381 71.2212 82.0499 71.0976 83.4215C70.9741 84.7931 71.9861 86.0052 73.3581 86.1288Z" fill="white" fill-opacity="0.7"/>
<path d="M26.3096 42.4614C26.5582 42.4838 26.7779 42.3005 26.8002 42.052C26.8226 41.8035 26.6393 41.5839 26.3907 41.5615C26.1421 41.5391 25.9225 41.7224 25.9001 41.9709C25.8777 42.2194 26.0611 42.439 26.3096 42.4614Z" fill="white" fill-opacity="0.7"/>
<path d="M32.4258 50.0522C32.8057 50.0864 33.1434 49.8046 33.1776 49.4248C33.2118 49.045 32.9294 48.7132 32.5495 48.6789C32.1696 48.6447 31.8377 48.9271 31.804 49.3011C31.7703 49.675 32.0517 50.0185 32.4258 50.0522Z" fill="white" fill-opacity="0.7"/>
<path d="M38.4435 58.671C39.5248 58.7684 40.4806 57.9709 40.578 56.8898C40.6753 55.8087 39.8775 54.8532 38.7962 54.7558C37.7149 54.6584 36.7591 55.4559 36.6617 56.537C36.5644 57.6181 37.3622 58.5736 38.4435 58.671Z" fill="white" fill-opacity="0.7"/>
<path d="M44.4891 67.0449C46.1387 67.1935 47.5964 65.977 47.745 64.3278C47.8936 62.6787 46.6767 61.2212 45.0271 61.0726C43.3776 60.924 41.9199 62.1405 41.7713 63.7897C41.6227 65.4389 42.8396 66.8963 44.4891 67.0449Z" fill="white" fill-opacity="0.7"/>
<path d="M50.6479 74.1624C52.1677 74.2993 53.512 73.1774 53.6489 71.658C53.7858 70.1387 52.6635 68.7946 51.1438 68.6577C49.6241 68.5208 48.2855 69.6432 48.1487 71.1625C48.0118 72.6819 49.134 74.026 50.6479 74.1624Z" fill="white" fill-opacity="0.7"/>
<path d="M56.7993 81.2969C58.2004 81.4231 59.4384 80.3899 59.5646 78.9893C59.6908 77.5886 58.6573 76.3508 57.2563 76.2246C55.8552 76.0984 54.6172 77.1315 54.491 78.5322C54.3649 79.9329 55.3983 81.1707 56.7993 81.2969Z" fill="white" fill-opacity="0.7"/>
<path d="M15.9323 44.5033L15.9635 44.4939C15.9662 44.4637 15.9553 44.4506 15.9372 44.449C15.9372 44.449 15.912 44.4589 15.9109 44.4709L15.9323 44.5033Z" fill="white" fill-opacity="0.7"/>
<path d="M21.8947 53.728C22.9468 53.8228 23.877 53.0465 23.9718 51.9947C24.0666 50.9428 23.29 50.0127 22.2379 49.918C21.1858 49.8232 20.2556 50.5995 20.1608 51.6513C20.066 52.7032 20.8426 53.6333 21.8947 53.728Z" fill="white" fill-opacity="0.7"/>
<path d="M27.9067 62.4759C29.7362 62.6407 31.3482 61.2955 31.5129 59.4664C31.6777 57.6374 30.3321 56.0257 28.5026 55.8609C26.6731 55.6961 25.0669 57.0418 24.9021 58.8709C24.7374 60.7 26.083 62.3116 27.9067 62.4759Z" fill="white" fill-opacity="0.7"/>
<path d="M34.0849 69.3772C35.6631 69.5194 37.0585 68.3549 37.2006 66.7771C37.3427 65.1993 36.1774 63.8101 34.5992 63.6679C33.0211 63.5258 31.6316 64.6907 31.4899 66.2627C31.3483 67.8346 32.5126 69.2355 34.0849 69.3772Z" fill="white" fill-opacity="0.7"/>
<path d="M40.2432 76.4357C41.6635 76.5637 42.9129 75.5157 43.0403 74.1015C43.1677 72.6874 42.1199 71.4324 40.7054 71.305C39.2908 71.1776 38.0357 72.2251 37.9083 73.6392C37.7809 75.0534 38.8286 76.3083 40.2432 76.4357Z" fill="white" fill-opacity="0.7"/>
<path d="M46.3909 83.676C47.747 83.7981 48.9512 82.7932 49.0733 81.4375C49.1954 80.0817 48.1902 78.8777 46.8342 78.7556C45.4781 78.6334 44.2744 79.6325 44.1517 80.9941C44.0291 82.3557 45.029 83.5533 46.3909 83.676Z" fill="white" fill-opacity="0.7"/>
<path d="M5.42231 47.9378C5.97759 47.9878 6.4682 47.5784 6.51821 47.0232C6.56822 46.4681 6.15868 45.9776 5.60339 45.9276C5.04811 45.8775 4.5575 46.287 4.50749 46.8421C4.45748 47.3973 4.86702 47.8878 5.42231 47.9378Z" fill="white" fill-opacity="0.7"/>
<path d="M11.3505 57.6148C13.1917 57.7806 14.8164 56.4248 14.9823 54.584C15.1481 52.7433 13.7918 51.1189 11.9506 50.953C10.1094 50.7871 8.48467 52.143 8.31885 53.9838C8.15303 55.8245 9.50929 57.4489 11.3505 57.6148Z" fill="white" fill-opacity="0.7"/>
<path d="M17.5114 64.6441C19.1772 64.7941 20.6491 63.5659 20.7991 61.9004C20.9491 60.235 19.7205 58.7635 18.0547 58.6134C16.3888 58.4633 14.917 59.6916 14.767 61.357C14.6169 63.0225 15.8455 64.494 17.5114 64.6441Z" fill="white" fill-opacity="0.7"/>
<path d="M23.6828 71.6214C25.1441 71.753 26.4317 70.6731 26.5628 69.218C26.6938 67.7629 25.62 66.4703 24.1587 66.3387C22.6974 66.207 21.4099 67.2869 21.2788 68.742C21.1477 70.1971 22.2216 71.4897 23.6828 71.6214Z" fill="white" fill-opacity="0.7"/>
<path d="M29.8369 78.7914C31.193 78.9136 32.3972 77.9086 32.5193 76.5529C32.6414 75.1972 31.6362 73.9932 30.2801 73.8711C28.9241 73.7489 27.7204 74.748 27.5977 76.1096C27.4751 77.4711 28.475 78.6687 29.8369 78.7914Z" fill="white" fill-opacity="0.7"/>
<path d="M35.9767 86.0545C37.2906 86.1728 38.4516 85.2039 38.5699 83.8904C38.6882 82.5769 37.7191 81.4161 36.4052 81.2977C35.0914 81.1794 33.9303 82.1482 33.812 83.4618C33.6937 84.7753 34.6628 85.9361 35.9767 86.0545Z" fill="white" fill-opacity="0.7"/>
<path d="M7.1382 66.6317C8.54103 66.758 9.7771 65.7265 9.90344 64.324C10.0298 62.9215 8.99796 61.6857 7.59514 61.5593C6.19231 61.433 4.95571 62.4703 4.8299 63.867C4.70408 65.2636 5.74122 66.5058 7.1382 66.6317Z" fill="white" fill-opacity="0.7"/>
<path d="M13.2786 73.9537C14.6639 74.0785 15.8936 73.0523 16.0183 71.6673C16.1431 70.2824 15.1166 69.0529 13.7313 68.9281C12.346 68.8033 11.1168 69.8237 10.9915 71.2145C10.8663 72.6053 11.8933 73.8289 13.2786 73.9537Z" fill="white" fill-opacity="0.7"/>
<path d="M19.4205 81.1933C20.7474 81.3129 21.9261 80.3292 22.0456 79.0027C22.1651 77.6762 21.1806 76.5035 19.8538 76.384C18.5269 76.2645 17.3546 77.2428 17.2351 78.5693C17.1156 79.8958 18.0937 81.0738 19.4205 81.1933Z" fill="white" fill-opacity="0.7"/>
<path d="M2.8765 76.1978C4.15073 76.3126 5.27212 75.3767 5.38688 74.1028C5.50164 72.8289 4.56502 71.7136 3.29079 71.5988C2.01656 71.484 0.901019 72.4204 0.786785 73.6884C0.672552 74.9565 1.60811 76.0835 2.8765 76.1978Z" fill="white" fill-opacity="0.7"/>
<path d="M9.00947 83.6016C10.3129 83.719 11.4603 82.7561 11.5772 81.4588C11.6941 80.1615 10.7367 79.0149 9.43324 78.8975C8.12978 78.78 6.98876 79.7376 6.87189 81.0349C6.75503 82.3322 7.71186 83.4847 9.00947 83.6016Z" fill="white" fill-opacity="0.7"/>
</mask>
<g mask="url(#mask0_1248_328)">
<rect x="15" y="-14" width="275" height="107" fill="url(#paint0_linear_1248_328)"/>
</g>
<defs>
<linearGradient id="paint0_linear_1248_328" x1="288.342" y1="44.8734" x2="-2.32976" y2="41.1812" gradientUnits="userSpaceOnUse">
<stop stop-color="white" stop-opacity="0.38"/>
<stop offset="1" stop-color="white" stop-opacity="0.08"/>
</linearGradient>
</defs>
</svg>
