<svg xmlns="http://www.w3.org/2000/svg" width="47" height="47" viewBox="0 0 47 47" fill="none">
  <circle cx="23.5" cy="23.5" r="23.5" fill="url(#paint0_linear_752_31107)" fill-opacity="0.31"/>
  <path d="M14.1818 14.7262C14.1877 15.0023 14.4163 15.2213 14.6924 15.2154L19.1913 15.1187C19.4674 15.1128 19.6864 14.8842 19.6805 14.6081C19.6746 14.332 19.4459 14.113 19.1699 14.119L15.1708 14.2049L15.0849 10.2058C15.0789 9.92972 14.8503 9.71072 14.5742 9.71665C14.2982 9.72258 14.0792 9.9512 14.0851 10.2273L14.1818 14.7262ZM23.4201 11.5C29.7901 11.5 34.9426 16.5938 34.9426 22.8634H35.9426C35.9426 16.029 30.3298 10.5 23.4201 10.5V11.5ZM15.0427 15.0614C17.1432 12.8686 20.1186 11.5 23.4201 11.5V10.5C19.8369 10.5 16.6034 11.9866 14.3206 14.3696L15.0427 15.0614Z" fill="#6ECB44"/>
  <path d="M32.2196 32.8147C32.2137 32.5387 31.9851 32.3197 31.709 32.3256L27.21 32.4222C26.9339 32.4282 26.7149 32.6568 26.7209 32.9329C26.7268 33.2089 26.9554 33.4279 27.2315 33.422L31.2306 33.3361L31.3165 37.3352C31.3224 37.6113 31.551 37.8302 31.8271 37.8243C32.1032 37.8184 32.3222 37.5898 32.3163 37.3137L32.2196 32.8147ZM22.9813 36.041C16.6113 36.041 11.4588 30.9472 11.4588 24.6776H10.4588C10.4588 31.512 16.0716 37.041 22.9813 37.041V36.041ZM31.3587 32.4796C29.2581 34.6724 26.2828 36.041 22.9813 36.041V37.041C26.5645 37.041 29.798 35.5544 32.0808 33.1713L31.3587 32.4796Z" fill="#6ECB44"/>
  <path d="M30.2531 19.9604V27.2493L22.9362 31.0194M30.2531 19.9604L22.9362 23.5629M30.2531 19.9604L25.3658 17.4421M22.9362 31.0194L15.4238 27.2493V19.9604M22.9362 31.0194V23.5629M15.4238 19.9604L22.9362 16.1902L25.3658 17.4421M15.4238 19.9604L20.3948 22.3442M22.9362 23.5629L20.3948 22.3442M27.2928 18.7595L20.3948 22.3442M20.3948 22.3442V24.7638L18.049 23.5629V21.1612L25.3658 17.4421" stroke="#6ECB44"/>
  <defs>
    <linearGradient id="paint0_linear_752_31107" x1="9.79167" y1="8.8125" x2="34.2708" y2="39.1667" gradientUnits="userSpaceOnUse">
      <stop stop-color="#D8EBD0"/>
      <stop offset="1" stop-color="#B4D6A5"/>
    </linearGradient>
  </defs>
</svg>