<svg width="47" height="47" viewBox="0 0 47 47" fill="none" xmlns="http://www.w3.org/2000/svg">
<circle cx="23.5" cy="23.5" r="23.5" fill="url(#paint0_linear_900_5616)" fill-opacity="0.31"/>
<path d="M10 35.25L10.8215 35.25M11.5917 35.25L36.2884 35.25M28.9227 21.7226L28.9227 35.25M33.5412 35.25L33.5412 16.7225L28.9227 16.7225L28.9227 20.9524M25.4535 35.25L25.4535 23.6507L20.8349 23.6507L20.8349 35.25M17.3685 30.1944L17.3685 26.7331L12.75 26.7331L12.75 35.25M17.3685 35.25L17.3685 30.9915M10.8215 24.3282C13.5405 23.7888 18.4711 22.4468 23.5619 18.7818C27.5131 15.9372 30.1744 12.6913 31.9036 10.0452" stroke="#6ECB44" stroke-miterlimit="10"/>
<path d="M28.7201 10.4392L32.0898 9.875L32.654 13.2447M14.2891 27.884L14.2891 28.6541M22.3742 24.8032L22.3742 25.5734M30.4757 17.8718L30.4757 18.6419" stroke="#6ECB44" stroke-miterlimit="10"/>
<defs>
<linearGradient id="paint0_linear_900_5616" x1="9.79167" y1="8.8125" x2="34.2708" y2="39.1667" gradientUnits="userSpaceOnUse">
<stop stop-color="#D8EBD0"/>
<stop offset="1" stop-color="#B4D6A5"/>
</linearGradient>
</defs>
</svg>
