<svg xmlns="http://www.w3.org/2000/svg" width="76" height="76" viewBox="0 0 76 76" fill="none">
<path d="M37.9658 75.9319C27.8967 75.9319 18.2399 71.9319 11.1199 64.812C3.99996 57.692 0 48.0352 0 37.9661C0 27.8969 3.99996 18.2401 11.1199 11.1201C18.2399 4.00017 27.8967 0.000203957 37.9658 0.000203807C43.8824 -0.0193823 49.7183 1.37299 54.9887 4.06167C55.2994 4.21936 55.576 4.4367 55.8028 4.7013C56.0295 4.96591 56.2019 5.27257 56.3102 5.6038C56.4184 5.93503 56.4603 6.28433 56.4335 6.63176C56.4068 6.97919 56.3118 7.31795 56.1541 7.62869C55.9964 7.93943 55.7791 8.21607 55.5145 8.44281C55.2499 8.66955 54.9432 8.84195 54.612 8.95018C54.2808 9.0584 53.9315 9.10032 53.584 9.07355C53.2366 9.04678 52.8979 8.95184 52.5871 8.79415C48.0661 6.46406 43.052 5.25292 37.9658 5.26245C31.5062 5.26245 25.1915 7.17752 19.82 10.7656C14.4485 14.3537 10.2613 19.4537 7.78768 25.421C5.31406 31.3883 4.66506 37.955 5.92271 44.291C7.18037 50.6271 10.2882 56.4481 14.8534 61.0182C19.4186 65.5884 25.2363 68.7025 31.571 69.967C37.9057 71.2315 44.473 70.5896 50.443 68.1224C56.413 65.6552 61.5175 61.4736 65.1114 56.1059C68.7053 50.7383 70.6272 44.4257 70.6341 37.9661C70.6525 37.672 70.6525 37.3771 70.6341 37.0831C70.5686 36.3806 70.7848 35.6809 71.2351 35.1377C71.6855 34.5946 72.3332 34.2527 73.0357 34.1871C73.7382 34.1216 74.438 34.3377 74.9811 34.7881C75.5242 35.2385 75.8661 35.8862 75.9317 36.5887V37.9661C75.9223 48.0324 71.9194 57.6837 64.8014 64.8016C57.6835 71.9196 48.0321 75.9225 37.9658 75.9319Z" fill="#68B546"/>
<path d="M37.3302 50.0092C36.9869 50.0143 36.6463 49.9478 36.3301 49.8141C36.0139 49.6803 35.7291 49.4821 35.4937 49.2322L18.4355 32.4919C17.9395 31.9953 17.6609 31.322 17.6609 30.6201C17.6609 29.9182 17.9395 29.245 18.4355 28.7483C18.9426 28.2585 19.62 27.9847 20.325 27.9847C21.03 27.9847 21.7074 28.2585 22.2145 28.7483L37.3655 43.6874L71.4464 10.1715C71.9535 9.68169 72.6309 9.40791 73.3359 9.40791C74.0409 9.40791 74.7183 9.68169 75.2254 10.1715C75.7214 10.6682 76 11.3414 76 12.0433C76 12.7453 75.7214 13.4185 75.2254 13.9151L39.2726 49.2322C39.0198 49.4885 38.7168 49.6898 38.3825 49.8235C38.0483 49.9572 37.69 50.0204 37.3302 50.0092Z" fill="#68B546"/>
</svg>