<svg xmlns="http://www.w3.org/2000/svg" width="60" height="60" viewBox="0 0 60 60" fill="none">
  <circle cx="30" cy="30" r="29.5" fill="white" stroke="#6ECB44"/>
  <path d="M35.3953 44.1489H24.4644C24.3263 44.1489 24.1939 44.2037 24.0963 44.3013C23.9987 44.399 23.9439 44.5313 23.9439 44.6694C23.9439 44.8074 23.9987 44.9398 24.0963 45.0375C24.1939 45.1351 24.3263 45.1899 24.4644 45.1899H35.3953C35.5333 45.1899 35.6657 45.1351 35.7633 45.0375C35.8609 44.9398 35.9158 44.8074 35.9158 44.6694C35.9158 44.5313 35.8609 44.399 35.7633 44.3013C35.6657 44.2037 35.5333 44.1489 35.3953 44.1489ZM30.1901 33.572L36.4363 29.9804C36.5157 29.9345 36.5816 29.8685 36.6273 29.789C36.673 29.7095 36.6969 29.6193 36.6965 29.5276V22.3392C36.6969 22.2475 36.673 22.1573 36.6273 22.0778C36.5816 21.9983 36.5157 21.9322 36.4363 21.8864L30.1901 18.2896C30.1109 18.2439 30.0212 18.2198 29.9298 18.2198C29.8384 18.2198 29.7487 18.2439 29.6696 18.2896L23.4233 21.8864C23.3439 21.9322 23.278 21.9983 23.2323 22.0778C23.1866 22.1573 23.1627 22.2475 23.1631 22.3392V29.5276C23.1627 29.6193 23.1866 29.7095 23.2323 29.789C23.278 29.8685 23.3439 29.9345 23.4233 29.9804L29.6696 33.572C29.7487 33.6177 29.8384 33.6417 29.9298 33.6417C30.0212 33.6417 30.1109 33.6177 30.1901 33.572ZM26.9681 21.0796L31.7829 24.2859L29.9298 25.3322L24.7246 22.3392L26.9681 21.0796ZM30.4503 32.2238V26.2327L32.2461 25.1916V26.7532C32.2461 26.8912 32.301 27.0236 32.3986 27.1213C32.4962 27.2189 32.6286 27.2737 32.7666 27.2737C32.9047 27.2737 33.0371 27.2189 33.1347 27.1213C33.2323 27.0236 33.2872 26.8912 33.2872 26.7532V24.593L35.6555 23.2397V29.2257L30.4503 32.2238ZM29.9298 19.341L35.135 22.3392L32.8031 23.6821L27.9883 20.4706L29.9298 19.341ZM24.2041 23.2397L29.4093 26.2327V32.2238L24.2041 29.2257V23.2397Z" fill="#6ECB44"/>
  <path d="M29.9309 43.1079C30.001 43.1077 30.0703 43.0932 30.1347 43.0655C30.1991 43.0378 30.2573 42.9973 30.3056 42.9466C30.7377 42.4989 40.8617 31.8231 40.8617 25.9309C40.8617 23.0318 39.7101 20.2515 37.6601 18.2016C35.6102 16.1516 32.8299 15 29.9309 15C27.0318 15 24.2515 16.1516 22.2016 18.2016C20.1516 20.2515 19 23.0318 19 25.9309C19 31.8231 29.1241 42.4989 29.5561 42.9466C29.6045 42.9973 29.6626 43.0378 29.727 43.0655C29.7914 43.0932 29.8607 43.1077 29.9309 43.1079ZM29.9309 16.041C32.5538 16.041 35.0693 17.083 36.924 18.9377C38.7787 20.7924 39.8207 23.3079 39.8207 25.9309C39.8207 30.7977 31.7839 39.8131 29.9309 41.8275C28.0778 39.8131 20.041 30.8029 20.041 25.9309C20.041 23.3079 21.083 20.7924 22.9377 18.9377C24.7924 17.083 27.3079 16.041 29.9309 16.041Z" fill="#6ECB44"/>
</svg>