<svg xmlns="http://www.w3.org/2000/svg" width="11" height="12" viewBox="0 0 11 12" fill="none">
  <path d="M5.49998 2.57145C5.07616 2.57145 4.66185 2.69713 4.30946 2.93259C3.95706 3.16806 3.68241 3.50273 3.52022 3.89429C3.35803 4.28585 3.31559 4.71671 3.39827 5.13239C3.48096 5.54807 3.68505 5.92989 3.98473 6.22958C4.28442 6.52926 4.66624 6.73335 5.08192 6.81604C5.4976 6.89872 5.92846 6.85628 6.32002 6.6941C6.71158 6.53191 7.04625 6.25725 7.28172 5.90485C7.51718 5.55246 7.64286 5.13815 7.64286 4.71433C7.64286 4.14601 7.41709 3.60096 7.01522 3.19909C6.61335 2.79722 6.0683 2.57145 5.49998 2.57145ZM5.49998 6.00006C5.24569 6.00006 4.9971 5.92465 4.78567 5.78338C4.57423 5.6421 4.40943 5.4413 4.31212 5.20636C4.21481 4.97142 4.18935 4.71291 4.23896 4.4635C4.28857 4.21409 4.41102 3.985 4.59083 3.80519C4.77064 3.62537 4.99974 3.50292 5.24914 3.45331C5.49855 3.4037 5.75707 3.42916 5.992 3.52648C6.22694 3.62379 6.42774 3.78858 6.56902 4.00002C6.7103 4.21146 6.7857 4.46004 6.7857 4.71433C6.7857 5.05533 6.65025 5.38236 6.40912 5.62348C6.168 5.8646 5.84097 6.00006 5.49998 6.00006ZM5.49998 0C4.25009 0.00141791 3.05181 0.498561 2.16801 1.38236C1.2842 2.26616 0.787062 3.46445 0.785645 4.71433C0.785645 6.39649 1.56297 8.17937 3.03567 9.87064C3.6974 10.6349 4.44217 11.323 5.25623 11.9224C5.32829 11.9729 5.41414 12 5.50212 12C5.5901 12 5.67595 11.9729 5.74802 11.9224C6.56057 11.3228 7.3039 10.6346 7.96429 9.87064C9.43484 8.17937 10.2143 6.39649 10.2143 4.71433C10.2129 3.46445 9.71575 2.26616 8.83195 1.38236C7.94815 0.498561 6.74986 0.00141791 5.49998 0ZM5.49998 11.0358C4.61443 10.3394 1.6428 7.78133 1.6428 4.71433C1.6428 3.69134 2.04918 2.71026 2.77254 1.98689C3.4959 1.26353 4.47699 0.857152 5.49998 0.857152C6.52297 0.857152 7.50405 1.26353 8.22742 1.98689C8.95078 2.71026 9.35716 3.69134 9.35716 4.71433C9.35716 7.78026 6.38552 10.3394 5.49998 11.0358Z" fill="white"/>
</svg>